<svg xmlns="http://www.w3.org/2000/svg" width="21" height="21" viewBox="0 0 21 21">
  <path id="Instagram" d="M510.5,160c-2.852,0-3.209.012-4.329.063a7.708,7.708,0,0,0-2.549.488,5.369,5.369,0,0,0-3.071,3.071,7.707,7.707,0,0,0-.488,2.549c-.051,1.12-.063,1.478-.063,4.329s.012,3.209.063,4.329a7.707,7.707,0,0,0,.488,2.549,5.369,5.369,0,0,0,3.071,3.071,7.707,7.707,0,0,0,2.549.488c1.12.051,1.477.063,4.329.063s3.209-.012,4.329-.063a7.707,7.707,0,0,0,2.549-.488,5.369,5.369,0,0,0,3.071-3.071,7.707,7.707,0,0,0,.488-2.549c.051-1.12.063-1.477.063-4.329s-.012-3.209-.063-4.329a7.707,7.707,0,0,0-.488-2.549,5.369,5.369,0,0,0-3.071-3.071,7.707,7.707,0,0,0-2.549-.488C513.709,160.012,513.352,160,510.5,160Zm0,1.892c2.8,0,3.136.011,4.243.061a5.809,5.809,0,0,1,1.95.362,3.477,3.477,0,0,1,1.993,1.993,5.809,5.809,0,0,1,.362,1.95c.05,1.107.061,1.439.061,4.243s-.011,3.136-.061,4.243a5.809,5.809,0,0,1-.362,1.95,3.477,3.477,0,0,1-1.993,1.993,5.809,5.809,0,0,1-1.95.362c-1.107.051-1.439.061-4.243.061s-3.136-.011-4.243-.061a5.809,5.809,0,0,1-1.95-.362,3.477,3.477,0,0,1-1.993-1.993,5.809,5.809,0,0,1-.362-1.95c-.051-1.107-.061-1.439-.061-4.243s.011-3.136.061-4.243a5.809,5.809,0,0,1,.362-1.95,3.477,3.477,0,0,1,1.993-1.993,5.809,5.809,0,0,1,1.95-.362C507.364,161.9,507.7,161.892,510.5,161.892Zm0,3.216a5.392,5.392,0,1,0,5.392,5.392A5.392,5.392,0,0,0,510.5,165.108Zm0,8.892a3.5,3.5,0,1,1,3.5-3.5A3.5,3.5,0,0,1,510.5,174Zm6.865-9.1a1.26,1.26,0,1,1-1.26-1.26A1.26,1.26,0,0,1,517.365,164.9Z" transform="translate(-500 -160)" fill-rule="evenodd"/>
</svg>
