<svg xmlns="http://www.w3.org/2000/svg" width="24" height="20" viewBox="0 0 24 20">
  <path id="Twitter" d="M324,166.368a9.615,9.615,0,0,1-2.827.795,5.038,5.038,0,0,0,2.165-2.792,9.7,9.7,0,0,1-3.129,1.224A4.856,4.856,0,0,0,316.616,164a4.987,4.987,0,0,0-4.922,5.049,5.154,5.154,0,0,0,.127,1.15,13.863,13.863,0,0,1-10.15-5.277,5.141,5.141,0,0,0-.666,2.541,5.082,5.082,0,0,0,2.191,4.2,4.834,4.834,0,0,1-2.231-.63v.062a5.02,5.02,0,0,0,3.951,4.951,4.7,4.7,0,0,1-1.3.178,4.784,4.784,0,0,1-.927-.09,4.943,4.943,0,0,0,4.6,3.5,9.722,9.722,0,0,1-6.115,2.163,9.853,9.853,0,0,1-1.175-.069A13.709,13.709,0,0,0,307.548,184c9.058,0,14.009-7.692,14.009-14.365,0-.22,0-.439-.013-.654A10.1,10.1,0,0,0,324,166.368" transform="translate(-300 -164)" fill-rule="evenodd"/>
</svg>
